# xmcd
#
# Track frame offsets:
# 150
# 17358
# 38029
# 56620
# 84239
# 111191
# 132599
# 157375
#
# Disc length: 2407 seconds
#
# Revision: 1
# Processed by: cddbd v1.4PL0 Copyright (c) Steve Scherf et al.
# Submitted via: CedeCatalogueitor 2.5 http://usuarios.lycos.es/kakasboy
#
DISCID=62096508
DTITLE=Rory Gallagher - Stage Struck
DYEAR=1980
DGENRE=
TTITLE0=Shinkicker
TTITLE1=Wayward Child
TTITLE2=Brute Force and Ignorance
TTITLE3=Moonchild
TTITLE4=Follow Me
TTITLE5=Bought and Sold
TTITLE6=The Last Of The Independents
TTITLE7=Shadow Play
EXTD=
EXTT0=
EXTT1=
EXTT2=
EXTT3=
EXTT4=
EXTT5=
EXTT6=
EXTT7=
PLAYORDER=
